HIERARCHY
ROOT SpineBase
{
  OFFSET 0.000000 0.000000 0.000000
  CHANNELS 6 Xposition Yposition Zposition Zrotation Xrotation Yrotation
  JOINT SpineMid
  {
    OFFSET 0.000000 22.635466 0.000000
    CHANNELS 3 Zrotation Xrotation Yrotation
    JOINT SpineShoulder
    {
      OFFSET -0.310186 17.023237 -0.655881
      CHANNELS 3 Zrotation Xrotation Yrotation
      JOINT Neck
      {
        OFFSET -0.190605 5.735370 -0.503651
        CHANNELS 3 Zrotation Xrotation Yrotation
        JOINT Head
        {
          OFFSET -1.214638 11.738180 2.292611
          CHANNELS 3 Zrotation Xrotation Yrotation
          End Site
          {
            OFFSET 0 0 0
          }
        }
      }
      JOINT ShoulderLeft
      {
        OFFSET -11.754128 -2.038316 3.689586
        CHANNELS 3 Zrotation Xrotation Yrotation
        JOINT ElbowLeft
        {
          OFFSET -4.665811 -21.720160 -4.557140
          CHANNELS 3 Zrotation Xrotation Yrotation
          JOINT WristLeft
          {
            OFFSET -3.509069 -10.311727 -15.735555
            CHANNELS 3 Zrotation Xrotation Yrotation
            JOINT HandLeft
            {
              OFFSET -0.649426 -1.312470 -4.433244
              CHANNELS 3 Zrotation Xrotation Yrotation
              JOINT HandTipLeft
              {
                OFFSET -1.325716 -0.718827 -4.388003
                CHANNELS 3 Zrotation Xrotation Yrotation
                End Site
                {
                  OFFSET 0 0 0
                }
              }
              JOINT ThumbLeft
              {
                OFFSET -0.315165 5.590826 4.082446
                CHANNELS 3 Zrotation Xrotation Yrotation
                End Site
                {
                  OFFSET 0 0 0
                }
              }
            }
          }
        }
      }
      JOINT ShoulderRight
      {
        OFFSET 10.001922 -1.140067 -8.221996
        CHANNELS 3 Zrotation Xrotation Yrotation
        JOINT ElbowRight
        {
          OFFSET -1.430911 -19.072951 -6.171901
          CHANNELS 3 Zrotation Xrotation Yrotation
          JOINT WristRight
          {
            OFFSET -11.559173 -11.498783 -10.988078
            CHANNELS 3 Zrotation Xrotation Yrotation
            JOINT HandRight
            {
              OFFSET -2.729374 -0.720637 -1.380694
              CHANNELS 3 Zrotation Xrotation Yrotation
              JOINT HandTipRight
              {
                OFFSET -5.956878 -1.284940 -5.090961
                CHANNELS 3 Zrotation Xrotation Yrotation
                End Site
                {
                  OFFSET 0 0 0
                }
              }
              JOINT ThumbRight
              {
                OFFSET 0.788054 -1.409881 -2.983069
                CHANNELS 3 Zrotation Xrotation Yrotation
                End Site
                {
                  OFFSET 0 0 0
                }
              }
            }
          }
        }
      }
    }
  }
  JOINT HipLeft
  {
    OFFSET -5.017854 1.085933 0.010174
    CHANNELS 3 Zrotation Xrotation Yrotation
    JOINT KneeLeft
    {
      OFFSET -18.660560 0.716053 -27.036501
      CHANNELS 3 Zrotation Xrotation Yrotation
      JOINT AnkleLeft
      {
        OFFSET 0.461781 -35.190920 6.618806
        CHANNELS 3 Zrotation Xrotation Yrotation
        JOINT FootLeft
        {
          OFFSET -4.329645 -1.122360 -10.724101
          CHANNELS 3 Zrotation Xrotation Yrotation
          End Site
          {
            OFFSET 0 0 0
          }
        }
      }
    }
  }
  JOINT HipRight
  {
    OFFSET 4.518228 1.621733 -5.582882
    CHANNELS 3 Zrotation Xrotation Yrotation
    JOINT KneeRight
    {
      OFFSET -14.528976 1.730192 -26.932859
      CHANNELS 3 Zrotation Xrotation Yrotation
      JOINT AnkleRight
      {
        OFFSET 8.428218 -34.977529 -1.284950
        CHANNELS 3 Zrotation Xrotation Yrotation
        JOINT FootRight
        {
          OFFSET -4.435264 -1.374087 -10.294344
          CHANNELS 3 Zrotation Xrotation Yrotation
          End Site
          {
            OFFSET 0 0 0
          }
        }
      }
    }
  }
}
MOTION
Frames: 7
Frame Time: 0.033333
39.684701 33.049039 379.093710 9.832837 -7.665326 -16.547697 -1.969219 -0.923674 17.510221 -2.435799 -0.001989 0.210124 -18.981136 23.431121 8.076262 0.000000 0.000000 0.000000 127.733044 -11.630611 -78.119772 -46.173728 21.727627 -85.372228 -24.766321 -30.864902 1.427847 -32.226111 -16.816177 -1.349660 0.000000 0.000000 0.000000 0.000000 0.000000 0.000000 170.511403 -46.590229 -61.728740 50.273943 -44.923062 58.491826 107.243437 -17.740809 -67.368486 -10.456357 40.359828 11.045507 0.000000 0.000000 0.000000 0.000000 0.000000 0.000000 -26.768381 32.757233 -36.805625 19.574145 -0.408018 62.854921 -1.679213 -43.841165 -41.898359 0.000000 0.000000 0.000000 -28.351297 41.549269 -37.495261 31.302715 -28.421966 65.922126 18.596690 -13.835078 -55.860277 0.000000 0.000000 0.000000
39.110485 34.012553 379.101549 9.860333 -7.558802 -16.240874 -1.907378 -1.045633 17.204786 -2.793668 -0.020741 0.207006 -21.225917 23.727256 9.352873 0.000000 0.000000 0.000000 127.395270 -13.703627 -70.021284 -41.626809 37.451462 -95.980293 -38.203647 -36.068549 -3.337304 -27.073780 -26.350210 -5.745282 0.000000 0.000000 0.000000 0.000000 0.000000 0.000000 -160.165810 -35.185399 38.021254 -102.237484 49.838397 -166.871665 170.620368 -15.969699 -165.788175 -5.093685 43.018527 6.314918 0.000000 0.000000 0.000000 0.000000 0.000000 0.000000 -25.692916 32.171239 -39.104414 21.012048 -0.468885 64.486951 -2.716278 -37.146641 -44.167470 0.000000 0.000000 0.000000 -30.212232 44.380401 -35.173749 34.889042 -33.132375 65.338432 20.818092 -13.215635 -55.801930 0.000000 0.000000 0.000000
38.597761 36.979795 378.936789 5.734289 -4.139565 -17.755158 -1.713766 -1.012126 18.101523 -2.747153 -0.017937 -0.014254 -14.106262 18.549212 6.648446 0.000000 0.000000 0.000000 126.209905 -5.635870 -70.513016 -33.469180 47.096550 -96.500227 -68.664097 -39.725303 -17.581539 -7.964213 -27.290989 -16.623004 0.000000 0.000000 0.000000 0.000000 0.000000 0.000000 -159.138657 9.281576 117.018321 -28.840636 6.784608 -43.830166 72.133385 -72.069712 11.736107 6.366619 38.266560 -0.116627 0.000000 0.000000 0.000000 0.000000 0.000000 0.000000 -19.217091 26.430761 -38.967736 19.497220 2.767008 63.946569 -5.637328 -42.737336 -44.065064 0.000000 0.000000 0.000000 -24.269422 40.611707 -36.323731 34.417171 -36.533084 65.100856 24.266633 -10.905825 -56.097951 0.000000 0.000000 0.000000
37.587658 37.953021 379.105631 -0.072254 -4.405902 -17.116546 -1.381066 -0.827684 17.013452 -2.499253 -0.001712 -0.266768 -1.491760 21.764519 4.377875 0.000000 0.000000 0.000000 125.542466 3.398704 -77.596576 -30.714639 45.393195 -85.843473 -74.393809 -37.623279 -18.733895 -7.313840 -16.366547 -10.802391 0.000000 0.000000 0.000000 0.000000 0.000000 0.000000 -158.579821 31.705215 139.058705 -62.235719 14.852339 -59.977026 41.116559 -52.579836 -12.627039 17.184540 28.668768 -5.342347 0.000000 0.000000 0.000000 0.000000 0.000000 0.000000 -13.374649 27.501488 -37.863527 18.790966 2.441072 61.957328 -5.630982 -39.163775 -47.304925 0.000000 0.000000 0.000000 -21.775162 46.168784 -32.183928 38.828657 -42.094108 63.977048 26.624893 -7.034484 -56.601201 0.000000 0.000000 0.000000
37.469308 39.404810 379.727780 -1.232920 -2.119045 -19.075673 -1.092665 -0.659796 18.927757 -2.115724 0.036241 -0.296956 -2.005829 18.118786 4.385913 0.000000 0.000000 0.000000 118.158559 15.877750 -79.788237 -19.154395 31.988142 -75.006120 -108.753986 -30.003827 -25.007782 11.931740 -4.925790 -13.514604 0.000000 0.000000 0.000000 0.000000 0.000000 0.000000 -169.847300 55.577881 162.844394 -79.911851 23.241171 -55.308669 27.585810 -46.407580 -12.319200 24.829818 20.624900 -9.413652 0.000000 0.000000 0.000000 0.000000 0.000000 0.000000 -12.840678 23.962903 -30.694598 17.453228 -0.038013 55.793388 -2.609150 -33.584119 -47.691429 0.000000 0.000000 0.000000 -18.682567 42.756462 -35.462413 37.280394 -42.665799 66.587028 29.340415 -8.727470 -55.003699 0.000000 0.000000 0.000000
38.364365 40.759416 379.501950 -1.833675 -0.479676 -15.803200 -0.858999 -0.389395 15.676318 -1.600085 0.047414 -0.274383 -0.472160 16.725210 3.643697 0.000000 0.000000 0.000000 107.000462 29.641144 -79.078556 2.342998 14.933454 -64.651077 -140.007023 -18.711600 -18.643644 38.933037 -5.314017 -24.511529 0.000000 0.000000 0.000000 0.000000 0.000000 0.000000 175.964997 66.272150 -178.208494 -86.039425 21.905400 -51.857695 17.991791 -44.737419 -10.101870 28.274544 11.649018 -9.868001 0.000000 0.000000 0.000000 0.000000 0.000000 0.000000 -10.980258 21.535934 -27.027784 14.021895 -4.439594 46.816687 2.646253 -29.799578 -54.458064 0.000000 0.000000 0.000000 -8.817354 38.201676 -53.304231 34.604919 -39.712183 75.743634 32.405938 -13.473928 -51.121244 0.000000 0.000000 0.000000
38.074160 42.866567 378.338486 -2.471754 1.594716 -4.461814 -0.625309 -0.050749 4.396703 -0.980224 -0.226006 -0.244770 -2.534756 15.727502 4.171817 0.000000 0.000000 0.000000 95.912494 41.395694 -76.643589 26.753567 -6.968601 -49.147743 -161.296448 -2.966918 6.684466 60.433761 -13.586894 -24.119815 0.000000 0.000000 0.000000 0.000000 0.000000 0.000000 151.588677 68.159723 -148.922278 -89.542098 23.423053 -52.590078 12.843469 -44.577015 -8.670085 28.158228 4.183688 -6.180268 0.000000 0.000000 0.000000 0.000000 0.000000 0.000000 -5.711377 18.844493 -33.730009 8.028321 -9.001985 38.544025 8.938510 -29.082771 -65.821932 0.000000 0.000000 0.000000 4.069921 25.172806 -87.231857 27.508037 -33.455910 93.714200 35.382681 -24.023956 -54.342395 0.000000 0.000000 0.000000
